<svg xmlns="http://www.w3.org/2000/svg" xmlns:xlink="http://www.w3.org/1999/xlink"
     version="1.1" id="Layer_1" x="0px" y="0px" width="100px" height="100px"
     viewBox="0 0 100 100" enable-background="new 0 0 100 100" xml:space="preserve">
  <defs>
    
    <g id="website">
      <path d="M62.925,93.344c-1.733-1.275-1.918-3.189-1.918-3.189L60.357,86H39.643l-0.652,4.152c0,0-0.181,1.916-1.914,3.191  c-1.732,1.274-3.099,2.368-1.732,2.553c1.317,0.178,13.74,0.016,14.656,0c0.918,0.016,13.338,0.178,14.655,0  C66.021,95.713,64.654,94.621,62.925,93.344z"/>
      <g>
        <path d="M26.667,60.152c5.534-0.043,6.223-1.377,8.027-6.932c3.327-8.769,18.309,2.295,9.024,6.135   C34.433,63.197,21.133,60.195,26.667,60.152z"/>
        <path d="M83.411,2.37c-2.687-2.164-7.134-1.098-9.937,2.38L45.083,45.086c-2.803,3.477-2.789,2.813-0.104,4.975   c2.685,2.164,2.038,2.32,4.841-1.158l33.377-36.317C85.999,9.106,86.096,4.533,83.411,2.37z M76.111,7.198   c0,0-0.416-0.483-1.799-1.589c2.074-3.387,6.15-2.766,6.15-2.766C76.596,5.125,76.111,7.198,76.111,7.198z"/>
      </g>
      <path d="M96.001,16H83.516l-5.514,6h16v48h-88V22h51.191l4.226-6H4.001c-2.209,0-4,1.791-4,4v58c0,2.209,1.791,4,4,4h92  c2.209,0,4-1.791,4-4V20C100.001,17.791,98.21,16,96.001,16z"/>
    </g>
    
    <g id="ps">
      <path d="M33.957,28.698c-2.519,0-4.236,0.246-5.121,0.491V45.41c1.064,0.244,2.357,0.322,4.152,0.322c6.599,0,10.68-3.338,10.68-8.962C43.656,31.719,40.156,28.698,33.957,28.698z"/>
      <path d="M93.751,0.271H6.249c-3.372,0-6.103,2.729-6.103,6.095v87.494c0,3.367,2.73,6.102,6.103,6.102h87.502c3.366,0,6.103-2.734,6.103-6.102V6.365C99.854,2.999,97.117,0.271,93.751,0.271z M50.908,49.484c-4.231,3.997-10.518,5.786-17.837,5.786c-1.639,0-3.104-0.078-4.241-0.244v19.646H16.517V20.47c3.829-0.646,9.208-1.136,16.795-1.136c7.653,0,13.121,1.46,16.777,4.403c3.523,2.776,5.881,7.335,5.881,12.714C55.97,41.832,54.17,46.384,50.908,49.484z M69.465,75.48c-5.23,0-9.866-1.131-12.888-2.77l2.196-8.879c2.285,1.377,7.012,3.01,10.691,3.01c3.733,0,5.289-1.299,5.289-3.346c0-2.033-1.22-3.01-5.858-4.564c-8.232-2.766-11.415-7.252-11.338-11.973c0-7.414,6.354-13.054,16.221-13.054c4.649,0,8.802,1.071,11.243,2.285l-2.196,8.562c-1.789-0.981-5.212-2.274-8.646-2.274c-3.004,0-4.71,1.216-4.71,3.255c0,1.873,1.532,2.849,6.427,4.572c7.581,2.596,10.765,6.432,10.836,12.29C86.732,70.018,80.857,75.48,69.465,75.48z"/>
    </g>
    
    <g id="books">
      <path d="M92.78,35.583c-0.404-3.032-0.461-8.258,2.355-10.012c0.052-0.034,0.09-0.081,0.134-0.12c2.306-0.736,3.897-1.771,2.647-3.161L63.933,12.049L8.906,19.7c0,0-6.301,0.898-5.739,10.689c0.306,5.328,1.976,7.945,3.438,9.233L2.09,40.984c-1.253,1.391,0.341,2.426,2.645,3.162c0.044,0.039,0.082,0.086,0.131,0.119c2.816,1.756,2.763,6.98,2.358,10.015c-10.116,2.872-6.485,3.807-6.485,3.807l2.219,0.537c-1.561,1.412-3.113,4.087-2.821,9.158c0.563,9.79,5.738,10.465,5.738,10.465L41.886,89.95l54.35-13.165c0,0,3.635-0.937-6.485-3.811c-0.406-3.031-0.464-8.256,2.359-10.013c0.052-0.032,0.091-0.08,0.132-0.119c2.306-0.735,3.896-1.77,2.645-3.16l-2.363-0.714c1.576-0.951,3.943-3.433,4.314-9.883c0.258-4.436-0.901-7.037-2.242-8.565l4.67-1.13C99.265,39.394,102.897,38.456,92.78,35.583z M47.319,35.458l9.139-1.879l30.888-6.349l4.603-0.945c-1.471,2.69-1.411,6.374-1.168,8.742c0.054,0.535,0.115,1.023,0.174,1.396l-5.037,1.251l-38.985,9.699L47.319,35.458z M8.057,44.983l4.602,0.947l29.662,6.097l2.592,0.531l0,0l0,0l7.771,1.598l0.382,11.916L13,56.104l-3.951-0.98
c0.059-0.373,0.12-0.861,0.174-1.397C9.465,51.358,9.528,47.674,8.057,44.983z M6.269,29.918c-0.056-2.603,0.409-4.486,1.346-5.443c0.597-0.611,1.302-0.738,1.784-0.738c0.256,0,0.44,0.035,0.453,0.035l23.71,7.73l11.828,3.857l-0.388,11.997l-33.186-9.303l-1.751-0.49c-0.064-0.019-0.15-0.031-0.218-0.035C9.71,37.52,6.429,37.217,6.269,29.918z M41.97,84.752L7.036,74.959c-0.064-0.021-0.152-0.034-0.22-0.035c-0.138-0.009-3.42-0.311-3.579-7.606c-0.057-2.607,0.41-4.488,1.346-5.446c0.599-0.611,1.303-0.738,1.786-0.738c0.256,0,0.438,0.034,0.452,0.034c0,0,0.001,0,0,0l35.537,11.588L41.97,84.752zM87.749,72.421c0.055,0.536,0.116,1.026,0.175,1.397L43.901,84.771l0.385-11.917l9.411-1.936l1.391,0.336l5.207-1.693l24.016-4.935l4.605-0.945C87.444,66.369,87.507,70.054,87.749,72.421z M90.175,56.226c-0.081,0.001-0.16,0.013-0.236,0.036L86.62,57.19l-31.615,8.865l-0.387-11.997l10.373-3.385l25.113-8.191c0.004-0.001,1.322-0.293,2.289,0.69c0.936,0.958,1.4,2.841,1.346,5.443C93.576,55.913,90.294,56.217,90.175,56.226z"/>
    </g>
    
    <g id="wp">
      <path d="M5.865,25.689c8.319-15.515,25-25.659,44.236-25.659c12.453,0,23.83,5.306,32.568,12.795c-2.497-0.483-5.224,0.06-7.968,1.629c-6.43,3.687-8.529,14.119-0.195,19.359c5.204,3.252,7.056,11.396,6.882,16.369c-0.172,4.981-12.099,27.858-12.099,27.858L57.677,38.168c0,0-0.4-2.797-0.4-3.604c0-1.017,0.335-2.263,0.964-2.974c0.432-0.473,1.093-1.467,1.872-1.467h5.504v-4.433H35.695v4.433h0.927c0.979,0,1.938,1.317,2.862,2.264c1.092,1.128,2.468,5.373,4.133,9.776l4.352,14.332l-9.377,21.669L28.305,34.856c0,0,0.303-2.967,0.925-3.472c0.406-0.347,1.028-1.262,1.749-1.262h0.282v-4.433H5.865z M11.731,33.216c0,0-2.42-3.093-4.989-3.093H4.136c-2.515,5.541-3.904,12.983-3.904,19.803c0,20.516,12.583,38.115,30.508,45.614L11.731,33.216z M93.017,25.295c0.948,4.497,0.751,9.951-1.098,15.951C87.098,56.856,75.162,84.94,70.541,95.639c17.346-7.747,29.43-25.037,29.43-45.138C99.971,41.294,97.429,32.678,93.017,25.295z M51.108,67.448l-12.75,31.146c3.767,0.899,7.696,1.393,11.743,1.393c4.19,0,8.254-0.519,12.143-1.484L51.108,67.448z"/>
    </g>
    
    <g id="video">
      <path d="M53.641,80.239c0.663-7.987-7.32-10.647-7.32-10.647L21.804,61.99c-1.253-0.788-2.623-1.227-4.06-1.257l-0.037-0.009v0.006c-0.038,0-0.071-0.006-0.111-0.006c-6.061,0-10.978,7.446-10.978,16.63c0,9.188,4.917,16.637,10.978,16.637c0.04,0,0.073-0.009,0.111-0.009v0.009l0.18-0.023c0.407-0.016,0.808-0.067,1.204-0.149l27.23-3.379C46.32,90.439,52.974,88.222,53.641,80.239z M17.598,88.32c-3.995,0-7.234-4.912-7.234-10.966c0-6.057,3.239-10.964,7.234-10.964s7.236,4.909,7.236,10.964C24.834,83.407,21.593,88.32,17.598,88.32z"/>
      <path d="M30.15,29.227c0,15.389,6.832,27.976,15.471,28.984c-5.387-4.399-9.019-15.407-9.019-28.984c0-13.577,3.635-24.584,9.019-28.98C36.982,1.251,30.15,13.838,30.15,29.227z"/>
      <path d="M62.443,18.559C60.625,7.833,56.176,0.246,50.963,0.246c-6.83,0-12.367,13.009-12.367,29.054c0,16.048,5.537,29.058,12.367,29.058c4.254,0,8.006-5.053,10.229-12.744C63.527,54,68.284,59.937,73.878,60.589c-4.954-4.047-8.297-14.169-8.297-26.657s3.343-22.615,8.296-26.658C69.146,7.823,65.021,12.162,62.443,18.559z M51.466,37.445c-1.737,0-3.14-3.373-3.14-7.532s1.402-7.53,3.14-7.53c1.732,0,3.138,3.371,3.138,7.53S53.198,37.445,51.466,37.445z"/>
      <path d="M78.792,60.723c6.278,0,11.37-11.967,11.37-26.729c0-14.754-5.092-26.724-11.37-26.724c-6.283,0-11.374,11.97-11.374,26.724C67.418,48.755,72.511,60.723,78.792,60.723z M78.792,27.555c1.732,0,3.138,3.371,3.138,7.53c0,4.161-1.405,7.532-3.138,7.532c-1.736,0-3.138-3.371-3.138-7.532C75.654,30.926,77.056,27.555,78.792,27.555z"/>
      <path d="M93.382,65.821l-33.716-5.099H33.274v2.234l13.207,4.095c3.505,1.168,9.849,5.444,9.186,13.408c-0.801,9.622-8.789,12.394-9.132,12.506c-0.164,0.056-0.339,0.097-0.514,0.116l-12.747,1.579v5.094l25.508-1.107l34.6,1.107V65.821z M35.459,97.967c-0.506,0-0.916-0.412-0.916-0.916c0-0.509,0.41-0.92,0.916-0.92c0.506,0,0.917,0.411,0.917,0.92C36.376,97.557,35.966,97.967,35.459,97.967z M56.904,97.051c-0.506,0-0.918-0.412-0.918-0.92c0-0.505,0.412-0.917,0.918-0.917c0.505,0,0.915,0.412,0.915,0.917C57.821,96.639,57.409,97.051,56.904,97.051z M56.904,64.936c-0.506,0-0.918-0.412-0.918-0.916c0-0.507,0.412-0.918,0.918-0.918c0.505,0,0.915,0.411,0.915,0.918C57.819,64.523,57.409,64.936,56.904,64.936z"/>
    </g>
    
    <g id="launch">
      <path d="M48.044,30.039c-5.867,0-10.641,4.774-10.641,10.641c0,1.459,0.304,2.899,0.888,4.235c0.002-0.002,0.004-0.003,0.006-0.005c0.02-0.023,0.044-0.04,0.064-0.062c0.336-0.35,0.69-0.679,1.057-0.989c0.129-0.11,0.268-0.206,0.4-0.311c0.267-0.21,0.536-0.416,0.816-0.604c0.163-0.11,0.331-0.208,0.498-0.311c0.265-0.163,0.531-0.32,0.806-0.464c0.181-0.095,0.364-0.182,0.549-0.27c0.275-0.129,0.555-0.249,0.838-0.359c0.189-0.075,0.381-0.147,0.573-0.214c0.296-0.1,0.596-0.186,0.899-0.267c0.188-0.05,0.376-0.104,0.568-0.146c0.333-0.075,0.674-0.128,1.017-0.178c0.165-0.025,0.329-0.058,0.496-0.076c0.511-0.055,1.028-0.089,1.55-0.089c0.487,0,0.969,0.03,1.446,0.079c0.089,0.009,0.177,0.022,0.267,0.033l2.249-2.973c0.354-0.468,1.023-0.563,1.494-0.206c0.468,0.355,0.56,1.025,0.205,1.494l-1.641,2.165c0.075,0.023,0.152,0.054,0.227,0.078c0.184,0.058,0.363,0.121,0.543,0.187c0.272,0.099,0.541,0.207,0.806,0.323c0.173,0.076,0.345,0.152,0.516,0.234c0.269,0.131,0.533,0.275,0.794,0.425c0.152,0.086,0.307,0.168,0.458,0.261c0.3,0.186,0.591,0.387,0.872,0.596c0.101,0.072,0.205,0.138,0.304,0.213c0.363,0.281,0.717,0.578,1.052,0.895c0.436-1.177,0.66-2.431,0.66-3.694C58.687,34.813,53.913,30.039,48.044,30.039z"/>
	<path d="M56.4,45.794c-0.173-0.158-0.352-0.31-0.535-0.456c-0.143-0.117-0.289-0.23-0.438-0.338c-0.189-0.139-0.381-0.268-0.577-0.394c-0.153-0.099-0.309-0.199-0.466-0.291c-0.203-0.117-0.41-0.225-0.619-0.329c-0.158-0.081-0.32-0.165-0.484-0.237c-0.219-0.098-0.439-0.183-0.663-0.266c-0.163-0.062-0.327-0.127-0.495-0.184c-0.236-0.078-0.477-0.138-0.719-0.201c-0.16-0.042-0.318-0.09-0.481-0.125c-0.271-0.059-0.546-0.097-0.822-0.137c-0.138-0.019-0.273-0.049-0.413-0.064c-0.417-0.045-0.837-0.069-1.261-0.069c-0.456,0-0.906,0.028-1.35,0.078c-0.15,0.017-0.292,0.05-0.441,0.072c-0.292,0.044-0.585,0.088-0.871,0.153c-0.171,0.04-0.339,0.094-0.508,0.141c-0.254,0.07-0.51,0.14-0.759,0.226c-0.176,0.062-0.347,0.136-0.52,0.207c-0.233,0.095-0.466,0.188-0.693,0.298c-0.173,0.083-0.341,0.179-0.508,0.271c-0.217,0.117-0.434,0.236-0.642,0.369c-0.166,0.104-0.325,0.217-0.486,0.329c-0.201,0.142-0.399,0.286-0.593,0.438c-0.154,0.123-0.303,0.253-0.452,0.384c-0.186,0.165-0.368,0.333-0.544,0.508c-0.141,0.142-0.278,0.286-0.414,0.436c-0.081,0.088-0.154,0.182-0.231,0.273c2.002,2.79,5.172,4.437,8.628,4.437c3.652,0,7.024-1.868,8.972-4.918c-0.072-0.075-0.14-0.153-0.211-0.225C56.674,46.046,56.537,45.919,56.4,45.794z"/>
	<path d="M68.061,50.231c0.644-2.833,0.983-5.719,0.983-8.593c0-13.692-7.31-26.403-19.103-33.35V1.102c0-0.589-0.478-1.066-1.066-1.066c-0.589,0-1.066,0.478-1.066,1.066v7.188c-11.792,6.946-19.103,19.659-19.103,33.35c0,2.792,0.321,5.595,0.928,8.347c-7.254,6.619-11.673,16.542-12.133,27.355c-0.02,0.478,0.279,0.911,0.733,1.059c3.915,1.289,7.989,1.941,12.107,1.941l0.48-0.011c0.428-0.006,0.812-0.265,0.975-0.658c1.527-3.681,5.026-6.659,9.513-8.199l-1.798,11.262c-4.059,0.36-7.315,3.543-7.786,7.574c-4.278,0.5-7.612,4.141-7.612,8.554c0,0.59,0.478,1.066,1.066,1.066c0.588,0,1.067-0.477,1.067-1.066c0-3.575,2.908-6.482,6.483-6.482c0.589,0,1.066-0.479,1.066-1.066c0-3.193,2.323-5.847,5.364-6.38l-0.592,3.695c-0.092,0.581,0.304,1.129,0.885,1.222c0.058,0.009,0.114,0.014,0.171,0.014c0.514,0,0.967-0.374,1.051-0.898l2.896-18.12c3.371-0.734,6.977-0.649,10.282,0.245l2.902,18.153c0.084,0.524,0.537,0.897,1.052,0.897c0.056,0,0.111-0.004,0.169-0.013c0.58-0.094,0.979-0.64,0.885-1.221l-0.59-3.695c3.042,0.533,5.36,3.188,5.36,6.378c0,0.59,0.479,1.066,1.066,1.066c3.577,0,6.484,2.911,6.484,6.482c0,0.591,0.476,1.066,1.067,1.066c0.588,0,1.066-0.476,1.066-1.066c0-4.41-3.335-8.054-7.616-8.555c-0.467-4.025-3.723-7.214-7.784-7.574L56.131,71.84c4.016,1.62,7.064,4.395,8.485,7.797c0.159,0.379,0.521,0.633,0.933,0.654c0.618,0.026,1.236,0.046,1.859,0.046c4.01,0,7.973-0.615,11.778-1.829c0.458-0.148,0.761-0.579,0.742-1.061C79.499,66.748,75.179,56.872,68.061,50.231z M59.277,46.765c-2.238,4.127-6.543,6.689-11.233,6.689c-4.456,0-8.519-2.274-10.868-6.085c-1.246-2.021-1.906-4.333-1.906-6.688c0-7.043,5.73-12.774,12.774-12.774s12.774,5.73,12.774,12.774C60.819,42.805,60.286,44.907,59.277,46.765z"/>
    </g>
    
    <g id="ai">
      <path d="M40.758,34.39H40.61c-0.75,3.021-1.5,6.849-2.33,9.784l-3.01,10.753h11.201l-3.152-10.753C42.418,41.159,41.514,37.411,40.758,34.39z"/>
      <path d="M93.832,0.315H6.434c-3.367,0-6.102,2.728-6.102,6.1v87.403c0,3.367,2.735,6.099,6.102,6.099h87.398c3.367,0,6.102-2.731,6.102-6.099V6.415C99.934,3.048,97.199,0.315,93.832,0.315z M52.036,76.5l-3.91-13.008H33.622L30.006,76.5H18.13l15.492-50.672H48.65L64.373,76.5H52.036z M81.762,76.5H70.328V39.74h11.434V76.5z M75.979,35.231c-3.603,0-6.013-2.565-5.943-5.725c-0.069-3.309,2.341-5.783,6.029-5.783c3.678,0,6.008,2.479,6.075,5.783C82.14,32.667,79.742,35.231,75.979,35.231z"/>
    </g>
    
    <g id="twitter">
      <path d="M99.252,19.224c-3.652,1.617-7.571,2.72-11.69,3.204c4.204-2.52,7.426-6.511,8.952-11.254c-3.949,2.332-8.298,4.021-12.938,4.942c-3.713-3.964-9.001-6.433-14.858-6.433c-11.248,0-20.364,9.122-20.364,20.358c0,1.593,0.182,3.15,0.527,4.634C31.958,33.827,16.96,25.723,6.917,13.403c-1.756,3.004-2.756,6.505-2.756,10.236c0,7.063,3.598,13.301,9.056,16.948c-3.337-0.115-6.475-1.03-9.219-2.556v0.254c0,9.861,7.014,18.087,16.33,19.965c-1.708,0.46-3.507,0.715-5.367,0.715c-1.314,0-2.586-0.134-3.834-0.383c2.592,8.099,10.109,13.986,19.013,14.144c-6.966,5.458-15.749,8.698-25.282,8.698c-1.647,0-3.265-0.097-4.858-0.278c9.013,5.797,19.71,9.171,31.206,9.171c37.457,0,57.937-31.025,57.937-57.931l-0.066-2.641C93.067,26.886,96.526,23.3,99.252,19.224z"/>
    </g>
    
    <g id="pen">
      <path d="M99.592,31.451c0,0-13.543-0.334-14.421-14.676C84.298,2.443,73.724,5.127,73.724,5.127S54.229,24.086,45.842,36.56c4.265,1.318,9.36,4.813,13.408,8.97c4.441,4.566,7.364,9.468,8.32,13.435C70.971,56.904,80.39,50.327,99.592,31.451z"/>
      <path d="M53.331,47.267c0.584,0.503,1.23,1.108,1.967,1.859c5.014,5.104,7.943,10.362,6.537,11.749c-0.816,0.803-2.914,0.115-5.5-1.584c0.838-1.018,1.643-1.986,2.413-2.881l-3.109-3.572l-2.228,1.852l-1.101,1.459l-1.862,2.482l-0.562,0.746l-0.565,0.744L33.159,81.6l-0.464,0.006c-6.672,0.043-12.888,2.412-17.885,5.186l-4.529,3.766c0,0,1.189,1.627,2.165,2.33c0.973,0.705,6.549-7.041,24.511-8.514c0,0,8.552-11.605,16.255-21.252c0.195-0.244,0.392-0.486,0.584-0.727c0.193-0.244,0.385-0.479,0.58-0.715c4.912,3.279,9.147,4.107,10.822,2.471l0.666,0.658l-0.654-0.666c0.879-0.865,1.1-2.451,0.652-4.494c-0.753-3.428-3.383-8.125-7.954-12.818c-4.628-4.755-9.56-7.707-13.129-8.636c-2.022-0.524-3.615-0.413-4.453,0.408c-1.296,1.272-0.968,4.388,0.854,8.193c2.667-2.553,4.282-4.046,4.306-4.068l0.396-0.366l0.52,0.158C49.155,43.364,51.6,45.452,53.331,47.267z"/>
      <path d="M0.499,94.07c0.075,0.197,0.187,0.387,0.341,0.545c0.16,0.16,0.342,0.277,0.544,0.352c0.573,0.223,1.268,0.09,1.754-0.387c0.269-0.264,0.401-0.59,0.462-0.924c0.065-0.377,0-0.754-0.201-1.084c2.782-2.471,9.032-7.438,16.997-10.426c3.641-1.369,7.63-2.326,11.816-2.418l14.896-19.795l0.81-1.09l0.567-0.752l0.565-0.754l1.87-2.482l2.991-3.984c-0.82-1.083-2.859-3.562-5.381-5.225c-0.693-0.458-1.42-0.862-2.175-1.151c-0.686,0.632-2.18,2.036-4.261,4.031c-0.224,0.215-0.462,0.446-0.697,0.67c-0.217,0.214-0.435,0.424-0.67,0.65c-0.854,0.825-1.769,1.719-2.757,2.69c-3.951,3.887-8.553,8.523-13.374,13.615c0.937,1.008,0.513,2.979-0.966,4.43c-1.359,1.334-3.13,1.766-4.179,1.096C13.59,78.07,7.631,84.961,2.266,91.857c-0.475-0.045-0.972,0.092-1.348,0.465c-0.15,0.145-0.25,0.313-0.338,0.484C0.384,93.213,0.355,93.666,0.499,94.07z"/>
    </g>
    
    <g id="instagram">
      <path d="M12.955,0.137h74.229C94.232,0.137,100,5.356,100,12.954v74.229C100,94.781,94.232,100,87.184,100H12.955c-7.051,0-12.818-5.219-12.818-12.816V12.954C0.137,5.356,5.904,0.137,12.955,0.137L12.955,0.137z M72.883,11.232c-2.474,0-4.494,2.022-4.494,4.496V26.49c0,2.473,2.021,4.496,4.494,4.496H84.17c2.472,0,4.495-2.023,4.495-4.496V15.728c0-2.474-2.023-4.496-4.495-4.496H72.883L72.883,11.232z M88.714,42.368h-8.791c0.832,2.715,1.283,5.591,1.283,8.568c0,16.609-13.899,30.074-31.042,30.074c-17.141,0-31.04-13.465-31.04-30.074c0-2.979,0.449-5.853,1.282-8.568h-9.172v42.184c0,2.183,1.787,3.97,3.971,3.97h69.541c2.184,0,3.971-1.786,3.971-3.97V42.368H88.714z M50.163,30.418c-11.076,0-20.056,8.7-20.056,19.434c0,10.733,8.98,19.433,20.056,19.433c11.077,0,20.058-8.7,20.058-19.433C70.221,39.119,61.241,30.418,50.163,30.418z"/>
    </g>
    
  </defs>
</svg>